<svg width="304" height="87" viewBox="0 0 304 87" fill="none" xmlns="http://www.w3.org/2000/svg">
<path d="M25.5312 61.25V67.9107C25.5312 69.0876 25.9988 70.2163 26.831 71.0485C27.6632 71.8807 28.7919 72.3482 29.9688 72.3482H61.0312C62.2081 72.3482 63.3368 71.8807 64.169 71.0485C65.0012 70.2163 65.4688 69.0876 65.4688 67.9107V61.25H25.5312ZM25.5312 56.8125H65.4688V19.0938C65.4688 17.9169 65.0012 16.7882 64.169 15.956C63.3368 15.1238 62.2081 14.6562 61.0312 14.6562H29.9688C28.7919 14.6562 27.6632 15.1238 26.831 15.956C25.9988 16.7882 25.5312 17.9169 25.5312 19.0938V56.8125ZM27.75 76.7812C25.9847 76.7812 24.2916 76.08 23.0433 74.8317C21.795 73.5834 21.0938 71.8903 21.0938 70.125V16.875C21.0938 15.1097 21.795 13.4166 23.0433 12.1683C24.2916 10.92 25.9847 10.2188 27.75 10.2188H63.25C65.0153 10.2188 66.7084 10.92 67.9567 12.1683C69.205 13.4166 69.9062 15.1097 69.9062 16.875V70.125C69.9062 71.8903 69.205 73.5834 67.9567 74.8317C66.7084 76.08 65.0153 76.7812 63.25 76.7812H27.75ZM48.8281 66.7969C48.8281 67.6796 48.4775 68.5261 47.8533 69.1502C47.2292 69.7744 46.3827 70.125 45.5 70.125C44.6173 70.125 43.7708 69.7744 43.1467 69.1502C42.5225 68.5261 42.1719 67.6796 42.1719 66.7969C42.1719 65.9142 42.5225 65.0677 43.1467 64.4435C43.7708 63.8194 44.6173 63.4688 45.5 63.4688C46.3827 63.4688 47.2292 63.8194 47.8533 64.4435C48.4775 65.0677 48.8281 65.9142 48.8281 66.7969Z" fill="#FDD109"/>
<path d="M86.3771 24.1447H96.5083L107.209 50.2506H107.664L118.364 24.1447H128.496V63H120.527V37.7099H120.205L110.149 62.8103H104.723L94.668 37.615H94.3455V63H86.3771V24.1447ZM141.961 63H133.158L146.572 24.1447H157.158L170.553 63H161.749L152.017 33.0237H151.713L141.961 63ZM141.411 47.7273H162.205V54.1399H141.411V47.7273ZM175.229 63V24.1447H183.444V56.2269H200.102V63H175.229Z" fill="black"/>
<path d="M205.542 24.1447H215.674L226.374 50.2506H226.829L237.53 24.1447H247.661V63H239.692V37.7099H239.37L229.315 62.8103H223.889L213.833 37.615H213.511V63H205.542V24.1447ZM290.135 43.5723C290.135 47.8095 289.332 51.4142 287.726 54.3866C286.132 57.3589 283.957 59.6292 281.199 61.1976C278.455 62.7534 275.368 63.5312 271.941 63.5312C268.488 63.5312 265.389 62.747 262.644 61.1787C259.9 59.6103 257.73 57.3399 256.137 54.3676C254.543 51.3953 253.746 47.7968 253.746 43.5723C253.746 39.3352 254.543 35.7304 256.137 32.7581C257.73 29.7858 259.9 27.5217 262.644 25.966C265.389 24.3976 268.488 23.6134 271.941 23.6134C275.368 23.6134 278.455 24.3976 281.199 25.966C283.957 27.5217 286.132 29.7858 287.726 32.7581C289.332 35.7304 290.135 39.3352 290.135 43.5723ZM281.806 43.5723C281.806 40.8277 281.395 38.513 280.573 36.6285C279.764 34.7439 278.619 33.3146 277.139 32.3407C275.659 31.3668 273.926 30.8798 271.941 30.8798C269.955 30.8798 268.222 31.3668 266.742 32.3407C265.262 33.3146 264.111 34.7439 263.289 36.6285C262.48 38.513 262.075 40.8277 262.075 43.5723C262.075 46.317 262.48 48.6316 263.289 50.5162C264.111 52.4008 265.262 53.83 266.742 54.804C268.222 55.7779 269.955 56.2648 271.941 56.2648C273.926 56.2648 275.659 55.7779 277.139 54.804C278.619 53.83 279.764 52.4008 280.573 50.5162C281.395 48.6316 281.806 46.317 281.806 43.5723Z" fill="#FDD109"/>
</svg>
