<svg width="71" height="90" viewBox="0 0 71 90" fill="none" xmlns="http://www.w3.org/2000/svg">
<path d="M7.09375 69V78.006C7.09375 79.5973 7.75881 81.1234 8.94264 82.2486C10.1265 83.3739 11.7321 84.006 13.4062 84.006H57.5938C59.2679 84.006 60.8735 83.3739 62.0574 82.2486C63.2412 81.1234 63.9062 79.5973 63.9062 78.006V69H7.09375ZM7.09375 63H63.9062V12C63.9062 10.4087 63.2412 8.88258 62.0574 7.75736C60.8735 6.63214 59.2679 6 57.5938 6H13.4062C11.7321 6 10.1265 6.63214 8.94264 7.75736C7.75881 8.88258 7.09375 10.4087 7.09375 12V63ZM10.25 90C7.73873 90 5.33032 89.0518 3.55458 87.364C1.77885 85.6761 0.78125 83.3869 0.78125 81V9C0.78125 6.61305 1.77885 4.32387 3.55458 2.63604C5.33032 0.948211 7.73873 0 10.25 0H60.75C63.2613 0 65.6697 0.948211 67.4454 2.63604C69.2212 4.32387 70.2187 6.61305 70.2188 9V81C70.2187 83.3869 69.2212 85.6761 67.4454 87.364C65.6697 89.0518 63.2613 90 60.75 90H10.25ZM40.2344 76.5C40.2344 77.6935 39.7356 78.8381 38.8477 79.682C37.9598 80.5259 36.7556 81 35.5 81C34.2444 81 33.0402 80.5259 32.1523 79.682C31.2644 78.8381 30.7656 77.6935 30.7656 76.5C30.7656 75.3065 31.2644 74.1619 32.1523 73.318C33.0402 72.4741 34.2444 72 35.5 72C36.7556 72 37.9598 72.4741 38.8477 73.318C39.7356 74.1619 40.2344 75.3065 40.2344 76.5V76.5Z" fill="#FDD109"/>
</svg>
