<svg width="205" height="41" viewBox="0 0 205 41" fill="none" xmlns="http://www.w3.org/2000/svg">
<path d="M0.377075 1.14466H10.5083L21.2087 27.2506H21.664L32.3644 1.14466H42.4957V40H34.5273V14.7099H34.2047L24.1494 39.8103H18.7233L8.66799 14.615H8.34546V40H0.377075V1.14466ZM55.9613 40H47.1581L60.5715 1.14466H71.1581L84.5526 40H75.7494L66.0166 10.0237H65.713L55.9613 40ZM55.4111 24.7273H76.2047V31.1399H55.4111V24.7273ZM89.2293 40V1.14466H97.4443V33.2269H114.102V40H89.2293Z" fill="white"/>
<path d="M119.542 1.14466H129.674L140.374 27.2506H140.829L151.53 1.14466H161.661V40H153.692V14.7099H153.37L143.315 39.8103H137.889L127.833 14.615H127.511V40H119.542V1.14466ZM204.135 20.5723C204.135 24.8095 203.332 28.4142 201.726 31.3866C200.132 34.3589 197.957 36.6292 195.199 38.1976C192.455 39.7534 189.368 40.5312 185.941 40.5312C182.488 40.5312 179.389 39.747 176.644 38.1787C173.9 36.6103 171.73 34.3399 170.137 31.3676C168.543 28.3953 167.746 24.7968 167.746 20.5723C167.746 16.3352 168.543 12.7304 170.137 9.7581C171.73 6.78577 173.9 4.52174 176.644 2.96601C179.389 1.39763 182.488 0.613435 185.941 0.613435C189.368 0.613435 192.455 1.39763 195.199 2.96601C197.957 4.52174 200.132 6.78577 201.726 9.7581C203.332 12.7304 204.135 16.3352 204.135 20.5723ZM195.806 20.5723C195.806 17.8277 195.395 15.513 194.573 13.6285C193.764 11.7439 192.619 10.3146 191.139 9.34071C189.659 8.3668 187.926 7.87984 185.941 7.87984C183.955 7.87984 182.222 8.3668 180.742 9.34071C179.262 10.3146 178.111 11.7439 177.289 13.6285C176.48 15.513 176.075 17.8277 176.075 20.5723C176.075 23.317 176.48 25.6316 177.289 27.5162C178.111 29.4008 179.262 30.83 180.742 31.804C182.222 32.7779 183.955 33.2648 185.941 33.2648C187.926 33.2648 189.659 32.7779 191.139 31.804C192.619 30.83 193.764 29.4008 194.573 27.5162C195.395 25.6316 195.806 23.317 195.806 20.5723Z" fill="#FDD109"/>
</svg>
